<!DOCTYPE svg PUBLIC "-//W3C//DTD SVG 1.1//EN" "http://www.w3.org/Graphics/SVG/1.1/DTD/svg11.dtd">
<!-- Uploaded to: SVG Repo, www.svgrepo.com, Transformed by: SVG Repo Mixer Tools -->
<svg fill="#85c459" height="800px" width="800px" version="1.1" id="Layer_1" xmlns="http://www.w3.org/2000/svg" xmlns:xlink="http://www.w3.org/1999/xlink" viewBox="0 0 480.924 480.924" xml:space="preserve">
<g id="SVGRepo_bgCarrier" stroke-width="0"/>
<g id="SVGRepo_tracerCarrier" stroke-linecap="round" stroke-linejoin="round"/>
<g id="SVGRepo_iconCarrier"> <g transform="translate(0 -540.36)"> <g> <g> <path d="M455.076,663.784L455.076,663.784c-2.3-3.2-6.2-4.7-10-3.9c-2.8,0.6-6,0.6-9.4,0.6c-39,0-70.8-31.6-70.8-70.3 c0-12.3,3.1-24,9.3-34.9c1.9-3.3,1.7-7.4-0.5-10.6c-2.2-3.2-5.9-4.8-9.7-4.2c-21.7,3.3-41.5,14.1-55.8,30.4 c-11.7,13.4-19.1,29.8-21.4,47.2c-12.9-4.7-26.9-7.2-41.4-7.2c-23.4,0-46.1,6.7-65.6,19.3c-17,11-30.9,26-40.6,43.7 c-9.1-2.4-17.9-3-24.4-3c-24.2,0-47,9.3-64.1,26c-17.2,16.9-26.7,39.5-26.7,63.5c0,49.8,40.7,90.3,90.8,90.3h130.6 c66.7,0,121-54,121-120.4c0-3.5-0.2-6.9-0.5-10.3c3.5,0.5,7.1,0.8,10.8,0.8c33.1,0,62.6-17.3,78.9-46.4 C457.576,671.184,457.376,666.984,455.076,663.784z M245.376,830.884L245.376,830.884l-130.6,0c-39,0-70.8-31.6-70.8-70.3 c0-38.4,31.8-69.6,70.8-69.6c9.5,0,18.6,1.6,25.6,4.5c5,2.1,10.7-0.2,12.9-5.1c16.4-36.1,52.6-59.5,92.1-59.5 c55.7,0,101,44.7,101,99.6C346.376,785.784,301.076,830.884,245.376,830.884z M376.776,700.984c-4.8,0-9.9-0.8-14.6-1.7 c-8.4-30.7-28.9-56.6-56.2-72.3c1.1-27.3,17.7-50.8,42.2-61.5c-2.3,7.9-3.4,16.1-3.4,24.5c0,46.9,36.1,85.5,82,89.9 C413.876,693.384,396.076,700.984,376.776,700.984z"/> <path d="M114.676,881.084c-3.2,0-6.2,1.6-8.1,4.2c-6.6,9.4-22.2,32.5-22.2,45.6c0,16.7,13.6,30.3,30.4,30.3 c16.7,0,30.4-13.5,30.2-30.3c0-13.1-15.5-36.2-22.2-45.6C120.976,882.684,117.876,881.084,114.676,881.084z M114.776,941.284 c-5.8,0-10.4-4.5-10.4-10.3c0.1-3.1,4.4-12,10.4-21.7c6,9.7,10.3,18.5,10.4,21.7 C125.176,936.784,120.576,941.284,114.776,941.284z"/> <path d="M275.576,881.084h-0.1c-3.2,0-6.3,1.6-8.1,4.3c-5,7.3-21.4,32.2-21.4,45.5c0,16.7,13.3,30.3,29.6,30.3h0 c16.8,0,30.4-13.5,30.3-30.3c0-13.1-15.5-36.2-22.2-45.6C281.876,882.684,278.776,881.084,275.576,881.084z M275.576,941.184 c-5.2,0-9.6-4.7-9.6-10.3c0-3,4.1-11.7,9.8-21.4c5.9,9.7,10.1,18.4,10.2,21.4C285.976,936.684,281.376,941.184,275.576,941.184z"/> <path d="M195.576,941.184h-0.1c-3.2,0-6.2,1.6-8.1,4.2c-6.6,9.4-22.2,32.5-22.2,45.6c0,16.7,13.6,30.3,30.4,30.3 c16.3,0,29.6-13.6,29.5-30.3c0-13.4-16.4-38.2-21.4-45.5C201.876,942.784,198.876,941.184,195.576,941.184z M195.576,1001.284 c-5.8,0-10.4-4.5-10.4-10.3c0-3.1,4.3-11.8,10.2-21.4c5.7,9.7,9.8,18.4,9.8,21.4 C205.176,996.584,200.776,1001.284,195.576,1001.284z"/> </g> </g> </g> </g>
</svg>